<svg width="316" height="316" viewBox="0 0 316 316" fill="none" xmlns="http://www.w3.org/2000/svg">
<path d="M315.029 140.226C315.095 140.816 314.632 141.334 314.039 141.334H240.501C240.026 141.334 239.616 140.997 239.517 140.531C231.489 102.894 198.05 74.6663 158.018 74.6663C117.986 74.6663 84.5464 102.894 76.5183 140.531C76.4191 140.997 76.0095 141.334 75.5339 141.334H1.99651C1.40298 141.334 0.940251 140.816 1.00629 140.226C9.83852 61.3319 76.7657 0 158.018 0C239.27 0 306.197 61.3319 315.029 140.226Z" fill="#F9FAFB"/>
<path d="M314.039 174.666C314.632 174.666 315.095 175.184 315.029 175.774C306.197 254.668 239.27 316 158.018 316C76.7657 316 9.83853 254.668 1.00629 175.774C0.940253 175.184 1.40299 174.666 1.99653 174.666L75.5339 174.667C76.0095 174.667 76.4191 175.004 76.5183 175.47C84.5464 213.106 117.986 241.334 158.018 241.334C198.05 241.334 231.489 213.106 239.517 175.47C239.616 175.004 240.026 174.667 240.501 174.667L314.039 174.666Z" fill="#F9FAFB"/>
<path d="M158.018 211C187.289 211 211.018 187.271 211.018 158C211.018 128.729 187.289 105 158.018 105C128.747 105 105.018 128.729 105.018 158C105.018 187.271 128.747 211 158.018 211Z" fill="#F9FAFB"/>
</svg>
